<?xml version="1.0" encoding="UTF-8" standalone="no"?>
<!DOCTYPE svg PUBLIC "-//W3C//DTD SVG 1.1//EN" "http://www.w3.org/Graphics/SVG/1.1/DTD/svg11.dtd">
<svg width="100%" height="100%" viewBox="0 0 2481 3508" version="1.1" xmlns="http://www.w3.org/2000/svg" xmlns:xlink="http://www.w3.org/1999/xlink" xml:space="preserve" xmlns:serif="http://www.serif.com/" style="fill-rule:evenodd;clip-rule:evenodd;stroke-linejoin:round;stroke-miterlimit:2;">
    <g transform="matrix(1.76787,0,0,1.74959,-969.591,-1536.99)">
        <path d="M1513.22,1180.58L1513.22,1180.58L1513.37,1407.08C1513.37,1412.51 1517.78,1416.92 1523.21,1416.92L1749.56,1416.92L1749.56,2359.6C1734.85,2340.21 1716.3,2323.77 1694.79,2311.42C1692.29,2309.98 1689.83,2308.57 1687.46,2307.2C1668.87,2296.53 1646.89,2293.43 1626.08,2298.54C1614.72,2301.33 1601.79,2304.51 1589.76,2307.47C1562.29,2314.21 1533.57,2313.89 1506.26,2306.53C1494.39,2303.34 1481.66,2299.91 1470.46,2296.89C1449.99,2291.38 1415.81,2330.18 1434.39,2340.85C1436.77,2342.22 1439.22,2343.63 1441.73,2345.07C1483.52,2369.07 1525.47,2407.02 1538.38,2453.45C1538.39,2453.5 1538.4,2453.57 1538.41,2453.63L1527.46,2453.63C1514.06,2417.93 1488.61,2387.82 1455.28,2368.68C1448.08,2364.55 1441.1,2360.54 1434.93,2356.99C1420.43,2348.67 1403.29,2346.25 1387.05,2350.23C1375.77,2353 1362.11,2356.36 1349.05,2359.57C1318.01,2367.19 1285.54,2366.83 1254.67,2358.52C1242.84,2355.33 1230.52,2352.01 1219.97,2349.17C1202.26,2344.4 1183.36,2347.33 1167.93,2357.25C1160.4,2362.09 1151.71,2367.67 1142.76,2373.41C1112.36,2392.95 1088.79,2420.99 1074.7,2453.63L1061.54,2453.63C1074.8,2407.69 1115.8,2368.87 1157.25,2345.07C1159.76,2343.63 1162.21,2342.22 1164.59,2340.85C1183.17,2330.18 1148.99,2291.38 1128.53,2296.89C1117.32,2299.91 1104.59,2303.34 1092.72,2306.53C1065.41,2313.89 1036.69,2314.21 1009.22,2307.47C997.192,2304.51 984.262,2301.33 972.897,2298.54C952.086,2293.43 930.106,2296.53 911.524,2307.2C909.148,2308.57 906.693,2309.98 904.187,2311.42C882.686,2323.77 864.13,2340.21 849.418,2359.6L849.418,1180.58L1513.22,1180.58ZM1301.32,2046.82C1381.81,2046.82 1447.15,2112.17 1447.15,2192.66C1447.15,2273.15 1381.81,2338.49 1301.32,2338.49C1220.83,2338.49 1155.48,2273.15 1155.48,2192.66C1155.48,2112.17 1220.83,2046.82 1301.32,2046.82ZM1158.16,2123.68C1157.9,2123.2 1157.88,2123.25 1157.51,2122.64C1138.57,2090.95 1103.91,2069.71 1064.34,2069.71C1004.47,2069.71 955.86,2118.31 955.86,2178.18C955.86,2238.05 1004.47,2286.66 1064.34,2286.66C1096.9,2286.66 1126.13,2272.28 1146.02,2249.53C1140.86,2234.6 1138.05,2218.58 1138.05,2201.91C1138.05,2174.09 1144.62,2145.81 1158.16,2123.68ZM1441.69,2122.27C1460.69,2090.78 1495.22,2069.71 1534.64,2069.71C1594.51,2069.71 1643.12,2118.31 1643.12,2178.18C1643.12,2238.05 1594.51,2286.66 1534.64,2286.66C1502.08,2286.66 1472.85,2272.28 1452.96,2249.53C1458.12,2234.6 1460.93,2218.58 1460.93,2201.91C1460.93,2174.3 1455.32,2144.86 1442.01,2122.79L1441.69,2122.27C1440.96,2123.48 1442.37,2121.03 1441.69,2122.27ZM956.439,1928.84L1643.21,1928.84C1648.64,1928.84 1653.05,1924.43 1653.05,1919C1653.05,1913.57 1648.64,1909.16 1643.21,1909.16L956.439,1909.16C951.009,1909.16 946.6,1913.57 946.6,1919C946.6,1924.43 951.009,1928.84 956.439,1928.84ZM956.439,1787.84L1643.21,1787.84C1648.64,1787.84 1653.05,1783.43 1653.05,1778C1653.05,1772.57 1648.64,1768.16 1643.21,1768.16L956.439,1768.16C951.009,1768.16 946.6,1772.57 946.6,1778C946.6,1783.43 951.009,1787.84 956.439,1787.84ZM956.439,1645.84L1643.21,1645.84C1648.64,1645.84 1653.05,1641.43 1653.05,1636C1653.05,1630.57 1648.64,1626.16 1643.21,1626.16L956.439,1626.16C951.009,1626.16 946.6,1630.57 946.6,1636C946.6,1641.43 951.009,1645.84 956.439,1645.84ZM956.439,1503.84L1643.21,1503.84C1648.64,1503.84 1653.05,1499.43 1653.05,1494C1653.05,1488.57 1648.64,1484.16 1643.21,1484.16L956.439,1484.16C951.009,1484.16 946.6,1488.57 946.6,1494C946.6,1499.43 951.009,1503.84 956.439,1503.84ZM1533.04,1397.24L1532.91,1190.42L1739.72,1397.24L1533.04,1397.24ZM956.439,1362.84L1428.16,1362.84C1433.59,1362.84 1438,1358.43 1438,1353C1438,1347.57 1433.59,1343.16 1428.16,1343.16L956.439,1343.16C951.009,1343.16 946.6,1347.57 946.6,1353C946.6,1358.43 951.009,1362.84 956.439,1362.84Z" style="fill:rgb(255,158,135);"/>
    </g>
</svg>
